<svg width="147" height="112" viewBox="0 0 147 112" fill="none" xmlns="http://www.w3.org/2000/svg">
<path d="M87.5936 2.57352L114.274 2.12109C114.274 2.12109 127.615 12.0739 133.267 26.0983C145.477 55.9567 155.2 93.9583 131.458 106.852C101.838 122.912 88.4981 87.1723 88.4981 87.1723C88.4981 87.1723 3.9339 84.4579 3.70779 83.5531C3.48169 82.6483 0.994476 46.0039 0.994476 46.0039C0.994476 46.0039 43.9549 66.1357 62.4957 36.5035C80.8104 7.09752 87.5936 2.57352 87.5936 2.57352Z" fill="#14A76C"/>
<path opacity="0.24" d="M133.266 26.0984C128.97 15.2408 119.926 6.87139 116.082 3.70459L112.012 5.74038C112.012 5.74038 126.935 15.467 135.527 43.0634C144.119 70.6598 141.632 93.0535 130.779 107.078C131.005 107.078 131.231 106.852 131.231 106.852C155.198 93.9584 145.476 56.183 133.266 26.0984Z" fill="#152B75"/>
<path d="M117.439 5.06177C117.439 5.06177 117.891 12.9788 99.5763 15.0146C86.9143 16.3717 83.5227 6.64513 83.5227 6.64513L117.439 5.06177Z" fill="#20CC87"/>
<path d="M104.099 79.7076C104.099 79.7076 114.953 91.4699 119.701 87.1721C124.449 83.1005 123.771 65.9094 122.414 56.6352C121.284 47.361 120.605 37.8606 120.605 37.8606C125.58 45.7776 131.006 81.9695 122.414 89.4341C114.048 97.1249 102.969 78.8027 102.969 78.8027L104.099 79.7076Z" fill="#117B51"/>
<path d="M90.3083 86.0413C90.3083 86.0413 106.588 117.935 131.234 106.852C131.234 106.852 117.667 116.578 104.101 107.53C90.5343 98.4823 88.0472 87.1723 88.0472 87.1723L90.3083 86.0413Z" fill="#20CC87"/>
<path d="M119.019 9.812C118.341 9.3596 117.21 10.0383 117.888 10.7169C122.41 15.2409 126.028 20.6697 128.515 26.5508C130.776 31.5272 131.907 36.956 134.168 41.9324C134.394 42.3848 135.299 42.3848 135.299 41.7062C134.62 30.17 127.611 17.2766 119.019 9.812Z" fill="#117B51"/>
<path d="M136.887 45.5516C136.661 44.873 135.304 45.0992 135.53 45.7778C136.209 49.6232 137.113 53.4685 138.017 57.3139C138.243 57.9925 139.374 57.7664 139.374 57.0878C138.696 53.4686 137.791 49.6232 136.887 45.5516Z" fill="#117B51"/>
<path d="M140.727 65.457C140.727 65.2308 140.049 65.2308 140.049 65.457C140.727 72.4692 139.144 78.8028 138.014 85.5888C138.014 86.0412 138.466 86.2674 138.692 85.815C142.084 79.7076 141.858 72.0168 140.727 65.457Z" fill="#117B51"/>
<path d="M135.303 93.2797C134.624 94.6369 133.72 95.9941 132.816 97.3513C131.911 98.4823 131.007 99.6133 130.554 100.97C130.328 101.423 131.007 101.649 131.233 101.423C133.72 99.8394 135.077 96.4464 136.433 93.732C136.433 93.2796 135.529 92.8273 135.303 93.2797Z" fill="#117B51"/>
<path d="M86.9157 2.57358C84.4285 2.34738 82.3936 4.83558 83.5241 7.09758C84.8808 9.81198 90.0812 14.1098 97.995 14.1098C105.909 13.8836 116.31 9.81193 117.44 5.28794C118.571 0.763937 114.727 0.990151 114.727 0.990151C114.727 0.990151 109.979 8.45479 97.995 8.45479C87.8201 8.45479 87.1418 2.57358 87.1418 2.57358H86.9157Z" fill="#117B51"/>
<path d="M87.5925 4.60938C86.2358 4.83557 84.427 6.19276 84.8792 7.77616C84.8792 8.00236 85.3314 8.00236 85.5575 7.77616C86.2359 6.87136 86.6881 5.96656 87.8186 5.51416C88.4969 5.51416 88.2708 4.60938 87.5925 4.60938Z" fill="#09513F"/>
<path d="M91.2127 8.22854C90.3082 9.35954 89.4038 11.8478 90.7605 12.9788C90.9866 13.205 91.6649 13.2049 91.6649 12.7525C91.6649 12.0739 91.4388 11.3953 91.4388 10.9429C91.4388 10.0381 91.6649 9.3595 92.1171 8.6809C92.5693 8.0023 91.6649 7.77614 91.2127 8.22854Z" fill="#09513F"/>
<path d="M97.5444 9.58594C97.7705 8.90734 96.866 8.90732 96.6399 9.35972C96.1877 10.4907 95.9616 12.0741 97.3183 12.7527C97.5444 12.9789 97.9966 12.7527 97.9966 12.5265C97.9966 11.3955 97.5444 10.4907 97.5444 9.58594Z" fill="#09513F"/>
<path d="M104.098 8.68091C103.872 8.22851 102.967 8.45474 102.967 9.13334C103.42 10.2643 102.741 11.3953 102.967 12.3001C102.967 12.7525 103.646 12.7525 103.872 12.5263C105.229 11.6215 104.776 9.81191 104.098 8.68091Z" fill="#09513F"/>
<path d="M109.301 6.64514C109.075 6.64514 109.075 7.09757 109.301 7.09757C109.753 7.32377 110.205 7.54994 110.431 7.77614C110.884 8.22854 110.883 8.68096 111.336 9.13336C111.562 9.35956 112.24 9.35956 112.24 9.13336C112.918 7.77616 110.657 5.96654 109.301 6.64514Z" fill="#09513F"/>
<path d="M114.502 3.02588C114.276 3.02588 113.824 3.25211 113.824 3.47831C114.05 4.15691 114.502 4.38313 114.955 5.06173C115.407 5.74033 115.633 6.41889 116.085 6.64509C116.311 6.87129 116.989 6.87128 117.216 6.41888C117.668 5.06168 115.633 3.25208 114.502 3.02588Z" fill="#09513F"/>
<path d="M98.4454 94.6368C97.541 93.5058 96.1844 92.601 95.0538 91.47C93.9233 90.1128 93.0188 88.7556 92.3405 87.1722C92.1144 86.7198 90.9839 86.7198 91.21 87.3984C92.3405 90.339 94.6016 93.9582 97.7671 95.0892C97.9932 95.3154 98.8976 95.0892 98.4454 94.6368Z" fill="#09513F"/>
<path d="M104.552 94.6369C103.873 92.8273 101.838 91.6963 100.708 90.3391C99.1251 88.7557 97.5423 87.1724 95.9596 85.3628C95.5073 84.9104 94.3768 85.3627 94.829 86.0413C96.1857 87.8509 97.7684 89.4344 99.125 91.0178C100.482 92.375 102.064 94.1845 103.873 94.8631C104.099 95.3155 104.552 94.8631 104.552 94.6369Z" fill="#09513F"/>
<path d="M102.29 86.7199C101.16 85.5889 100.029 84.4579 98.8986 83.3269C98.4464 82.8745 97.542 83.5532 97.9942 84.0056C99.1248 85.1366 100.029 86.4938 101.16 87.6248C102.064 88.7558 102.969 89.8867 104.325 90.5653C104.551 90.7915 105.23 90.5653 105.23 90.1129C104.551 88.5295 103.421 87.6247 102.29 86.7199Z" fill="#09513F"/>
<path d="M108.168 87.851C107.49 86.72 106.133 85.8152 105.002 84.6842C104.098 83.7794 103.194 82.196 101.837 81.5174C101.611 81.2912 101.159 81.5175 101.159 81.9699C101.159 83.3271 102.515 84.9104 103.42 85.8152C104.55 86.9462 105.681 88.3035 107.264 88.7559C107.942 88.9821 108.62 88.5296 108.168 87.851Z" fill="#09513F"/>
</svg>
