<svg width="240" height="152" viewBox="0 0 240 152" fill="none" xmlns="http://www.w3.org/2000/svg">
<path d="M143.874 28.8014C143.648 28.8014 143.421 28.5752 143.195 28.5752C143.195 27.218 142.517 26.087 142.065 24.956C141.613 23.5988 140.934 22.0154 140.482 20.6582C140.256 20.2058 139.578 20.432 139.578 20.8844C140.03 22.4678 140.482 23.825 140.934 25.4084C141.16 26.5394 141.613 27.8966 142.065 28.8014C141.613 29.0276 141.16 29.2538 141.16 29.9324C141.16 31.0634 142.517 31.2896 143.421 31.0634C143.421 31.0634 143.422 31.0634 143.648 31.0634C144.778 30.611 144.778 29.2538 143.874 28.8014Z" fill="#E0CAEF"/>
<path d="M159.697 21.7892C159.245 21.7892 158.793 22.0154 158.793 22.4678C157.662 21.1107 156.305 19.9796 154.949 18.6224C153.366 17.039 151.783 15.2295 150.427 13.4199C150.201 13.1937 149.974 13.1936 149.974 13.1936V12.9674C149.974 12.9674 150.2 12.9674 150.2 12.7412C150.653 12.515 150.2 12.0626 149.748 12.0626H149.522C149.296 12.0626 149.07 11.8364 148.844 11.8364C148.166 11.8364 147.939 12.0626 147.939 12.515C146.809 12.9674 145.905 13.646 144.774 14.0984C143.191 15.0032 141.608 15.908 140.252 17.039C140.026 17.039 140.026 17.2652 140.026 17.2652C139.573 17.039 139.121 17.039 138.895 17.4914C138.895 17.4914 138.895 17.4914 138.895 17.7176C138.669 17.9438 138.669 18.17 138.669 18.3962C137.312 18.17 135.73 17.7176 134.147 17.7176C133.921 17.4914 133.695 17.2652 133.016 17.2652C132.564 17.2652 132.338 17.4914 132.112 17.7176C129.851 17.7176 127.59 17.9438 125.781 18.3962C125.781 18.3962 125.555 18.3962 125.555 18.6224C125.329 18.17 125.103 17.9439 124.424 17.9439C123.294 17.9439 123.068 19.0748 123.746 19.5272C122.842 20.2058 121.937 20.8844 121.033 21.7892C120.128 22.4678 118.998 23.3726 118.319 24.2774C118.093 24.5036 118.319 24.7298 118.545 24.7298C118.545 24.7298 118.545 24.7298 118.545 24.956C118.998 25.4084 119.902 25.1822 119.902 24.5036C119.902 24.2774 119.902 24.2774 119.676 24.0512C120.354 23.5988 121.033 22.9202 121.485 22.4678C122.389 21.563 123.52 20.6582 124.424 19.7534C124.876 19.7534 125.103 19.5272 125.103 19.301L125.329 19.5272C127.364 19.7534 129.399 19.5272 131.434 19.5272C131.66 19.5272 131.886 19.5272 132.112 19.5272C132.338 19.5272 132.338 19.5272 132.564 19.5272H132.79C134.599 19.5272 136.634 19.7534 138.443 19.7534C138.895 19.7534 139.121 19.3011 138.895 19.0749C139.573 19.0749 140.026 18.8486 139.8 18.17C140.026 18.17 140.026 18.17 140.252 18.17C141.835 17.2652 143.417 16.3604 145 15.4556C145.904 15.0032 146.809 14.5508 147.939 14.0984H148.166C148.392 14.0984 148.618 14.0984 148.844 13.8722C148.844 13.8722 148.844 13.8722 148.844 14.0984C151.105 17.2652 153.592 20.6582 156.758 22.9202C152.688 23.825 148.392 26.3132 144.774 27.8966C144.096 28.1228 144.774 28.8014 145.226 28.5752C147.487 27.6704 149.974 26.7656 152.235 25.8608C154.27 25.1822 156.531 24.5036 158.566 23.3726C158.793 23.3726 158.793 23.5988 159.019 23.5988C161.054 23.5988 161.054 21.7892 159.697 21.7892Z" fill="#E0CAEF"/>
<path d="M148.395 48.9331C147.491 48.9331 147.491 50.0635 148.395 50.0635C149.299 50.0635 149.299 48.9331 148.395 48.9331Z" fill="#E0CAEF"/>
<path d="M152.916 36.7183C152.238 36.7183 152.238 37.6225 152.916 37.6225C153.594 37.6225 153.594 36.7183 152.916 36.7183Z" fill="#E0CAEF"/>
<path d="M135.957 36.9446C135.052 36.9446 135.052 38.301 135.957 38.301C136.861 38.301 136.861 36.9446 135.957 36.9446Z" fill="#E0CAEF"/>
<path d="M131.889 25.182C131.889 25.182 131.663 25.182 131.889 25.182C131.663 24.7299 130.985 24.9559 130.985 25.4081C130.985 25.8602 131.663 26.0863 131.889 25.6342C131.889 25.4081 131.889 25.4081 131.889 25.182Z" fill="#E0CAEF"/>
<path d="M125.331 35.5874C124.653 35.5874 124.653 36.4917 125.331 36.4917C126.009 36.7177 126.009 35.5874 125.331 35.5874Z" fill="#E0CAEF"/>
<path d="M114.929 10.2528C113.572 9.34849 113.572 11.8353 114.703 11.1571C114.703 11.1571 114.703 11.1571 114.929 11.1571C115.381 10.931 115.381 10.4788 114.929 10.2528Z" fill="#E0CAEF"/>
<path d="M121.033 0.526367C120.129 0.526367 120.129 1.65672 121.033 1.65672C121.937 1.65672 121.937 0.526367 121.033 0.526367Z" fill="#E0CAEF"/>
<path d="M133.698 12.2888C132.794 12.2888 132.794 13.4192 133.698 13.4192C134.603 13.1931 134.603 12.2888 133.698 12.2888Z" fill="#E0CAEF"/>
<path d="M155.854 67.7078C154.724 67.7078 154.724 69.0641 155.854 69.0641C156.984 69.0641 156.984 67.7078 155.854 67.7078Z" fill="#E0CAEF"/>
<path d="M156.535 53.4573C155.405 53.4573 155.405 54.8137 156.535 54.8137C157.665 55.0398 157.665 53.4573 156.535 53.4573Z" fill="#E0CAEF"/>
<path d="M142.968 57.7549C141.837 57.7549 141.837 59.1113 142.968 59.1113C144.098 59.3374 144.098 57.7549 142.968 57.7549Z" fill="#E0CAEF"/>
<path d="M39.6366 101.411C39.6366 101.411 39.4105 101.411 39.6366 101.411C37.6017 100.507 35.7928 100.507 34.2101 99.3757C34.2101 98.9233 33.7579 98.6971 33.3057 98.4709C33.0796 98.2447 32.8534 97.7923 32.6273 97.5661C31.0445 94.8517 29.6879 91.9111 28.1052 89.1967L27.8791 88.9705C28.1052 88.5181 28.1052 88.2919 27.8791 87.8395C29.0096 86.7085 29.6879 84.6727 30.3662 83.5417C31.2707 81.7321 32.4012 79.9225 32.6273 78.1129C32.8534 77.4343 32.6273 76.5295 31.7229 76.5295C31.0446 74.7199 29.4618 73.3627 28.1052 72.0055C28.3313 71.3269 27.879 70.8745 26.9746 70.8745C25.3919 70.8745 25.3919 72.9103 26.9746 72.9103C27.2007 72.9103 27.4269 72.9103 27.653 72.6841C28.3313 73.3627 29.0096 74.0413 29.4618 74.9461C29.914 75.6247 30.3663 76.0771 30.8185 76.7557C29.914 77.2081 29.9141 78.7915 31.2707 79.0177C31.0446 79.9225 30.5924 81.0535 30.1402 81.9583C29.4618 83.3155 28.5574 86.7085 27.4269 87.3871C27.2007 87.3871 27.2007 87.3871 26.9746 87.3871C26.5224 87.3871 26.2963 87.6133 26.0702 87.8395C24.9397 87.8395 23.8091 87.1609 22.9047 87.1609C21.0958 86.7085 18.8348 86.7085 17.252 85.8037C17.252 85.3513 16.7998 84.8989 16.1215 85.1251C16.1215 85.1251 16.1215 85.1251 15.8954 85.1251C14.9909 85.3513 14.9909 86.4823 15.8954 86.7085C15.8954 86.7085 15.8954 86.7085 16.1215 86.7085C16.7998 86.9347 17.0259 86.7085 17.252 86.2561C18.8348 87.1609 20.4176 87.3871 22.2264 87.8395C23.1308 88.0657 24.4874 88.5181 25.8441 88.7443C25.8441 89.4229 26.2963 89.8753 27.2007 89.8753C27.4268 89.8753 27.653 89.8753 27.8791 89.8753C29.2357 93.0421 30.5923 96.4351 32.6273 99.1495C31.7229 99.8281 31.949 101.411 33.5318 101.411C33.984 101.411 34.4362 101.185 34.6623 100.959C36.019 101.638 37.6017 102.09 39.1845 102.542C38.9584 103.221 39.1845 103.9 40.315 103.9C41.2194 103.447 41.2194 101.411 39.6366 101.411Z" fill="#E0CAEF"/>
<path d="M35.7946 87.6133C34.8903 87.6133 34.8903 88.7436 35.7946 88.7436C36.6988 88.7436 36.6988 87.6133 35.7946 87.6133Z" fill="#E0CAEF"/>
<path d="M40.3147 80.8272C39.6366 80.149 38.7323 81.2794 39.6365 81.7315C40.0886 81.9576 40.7668 81.5054 40.3147 80.8272Z" fill="#E0CAEF"/>
<path d="M34.4376 68.3863C34.4376 68.3863 34.4376 68.6124 34.4376 68.3863C34.2115 68.6124 34.2115 69.0645 34.4376 69.2906C34.8897 69.5166 35.7939 69.5167 35.7939 68.8385C35.7939 68.3863 34.8897 68.1602 34.4376 68.3863Z" fill="#E0CAEF"/>
<path d="M26.2973 105.031C25.6191 105.031 25.6191 105.935 26.2973 105.935C26.9754 105.935 26.9754 105.031 26.2973 105.031Z" fill="#E0CAEF"/>
<path d="M12.2777 108.65C11.5995 108.65 11.5995 109.554 12.2777 109.554C12.9558 109.328 12.9558 108.65 12.2777 108.65Z" fill="#E0CAEF"/>
<path d="M19.0615 99.3757C18.3833 99.3757 18.3833 100.506 19.0615 100.506C19.7396 100.28 19.7396 99.3757 19.0615 99.3757Z" fill="#E0CAEF"/>
<path d="M1.19926 90.3277C0.973208 90.3277 0.973208 90.3277 1.19926 90.3277C0.295052 91.0059 1.42535 91.6841 1.87746 91.0059C1.87746 91.0059 1.8774 90.7798 2.10346 90.7798C2.55556 90.3276 1.42531 89.8755 1.19926 90.3277Z" fill="#E0CAEF"/>
<path d="M0.520428 103.674C-0.157729 103.674 -0.157729 104.578 0.520428 104.578C1.19858 104.578 1.19858 103.674 0.520428 103.674Z" fill="#E0CAEF"/>
<path d="M6.17233 73.8152C5.26812 73.8152 5.26812 74.9455 6.17233 74.9455C7.07654 74.9455 7.07654 73.8152 6.17233 73.8152Z" fill="#E0CAEF"/>
<path d="M24.2617 66.3506C24.2617 66.3506 24.4879 66.3506 24.4879 66.1244C24.714 65.8982 24.714 65.6721 24.4879 65.4459C24.0357 64.9935 22.9051 64.9934 22.9051 65.8982C22.9051 66.3506 23.3573 66.5769 23.5834 66.5769C22.9051 67.0293 23.1312 67.934 24.0356 67.934C25.3923 67.934 25.3923 66.5768 24.2617 66.3506Z" fill="#E0CAEF"/>
<path d="M20.1917 76.7559C19.2875 76.7559 19.2875 77.8862 20.1917 77.8862C20.8699 77.8862 20.8699 76.7559 20.1917 76.7559Z" fill="#E0CAEF"/>
<path d="M50.2625 113.174C49.1322 113.174 49.1322 114.756 50.2625 114.756C51.1667 114.756 51.1667 113.174 50.2625 113.174Z" fill="#E0CAEF"/>
<path d="M51.1683 104.126C50.2641 104.126 50.2641 105.256 51.1683 105.256C51.8464 105.256 51.8464 104.126 51.1683 104.126Z" fill="#E0CAEF"/>
<path d="M39.1869 114.079C38.2827 114.079 38.2827 115.209 39.1869 115.209C39.865 115.209 39.865 114.079 39.1869 114.079Z" fill="#E0CAEF"/>
<path d="M38.7336 128.329C38.0554 128.329 38.0554 129.234 38.7336 129.234C39.4117 129.234 39.4117 128.329 38.7336 128.329Z" fill="#E0CAEF"/>
<path d="M26.7483 122.222C26.0702 122.222 26.0702 123.126 26.7483 123.126C27.4265 123.126 27.4265 122.222 26.7483 122.222Z" fill="#E0CAEF"/>
<path d="M59.3091 138.056C58.4049 138.056 58.4049 139.186 59.3091 139.186C60.2133 139.412 60.2133 138.056 59.3091 138.056Z" fill="#E0CAEF"/>
<path d="M60.2131 125.163C59.3089 125.163 59.3089 126.519 60.2131 126.519C61.1173 126.519 61.1173 125.163 60.2131 125.163Z" fill="#E0CAEF"/>
<path d="M72.6488 139.187C71.9707 140.317 74.2312 140.995 74.4572 139.865C74.6833 138.735 73.327 138.282 72.6488 139.187Z" fill="#E0CAEF"/>
<path d="M71.7442 150.497C71.0661 150.497 71.0661 151.401 71.7442 151.401C72.4224 151.627 72.4224 150.497 71.7442 150.497Z" fill="#E0CAEF"/>
<path d="M65.4117 145.068C65.1861 145.068 65.1861 145.52 65.4117 145.52C65.6373 145.52 65.6373 145.068 65.4117 145.068Z" fill="#E0CAEF"/>
<path d="M78.302 147.104C77.6238 147.104 77.6238 148.008 78.302 148.008C78.7541 147.782 78.7541 147.104 78.302 147.104Z" fill="#E0CAEF"/>
<path d="M77.1721 102.316C77.3981 102.768 78.3024 102.768 78.5284 102.542C78.5284 102.542 78.5284 102.542 78.5284 102.316C79.4326 100.959 76.4939 100.959 77.1721 102.316Z" fill="#E0CAEF"/>
<path d="M68.1259 102.995C67.2217 102.995 67.2217 104.125 68.1259 104.125C68.8041 104.125 68.8041 102.995 68.1259 102.995Z" fill="#E0CAEF"/>
<path d="M101.362 93.9468C101.136 93.9468 100.684 93.9468 100.458 93.9468C99.3279 94.1728 100.006 95.7554 101.136 95.3032C101.362 95.0771 101.588 95.0772 101.814 94.8511C101.814 94.625 101.815 94.1728 101.362 93.9468Z" fill="#E0CAEF"/>
<path d="M126.234 86.4824C125.104 86.4824 125.104 87.8389 126.234 87.8389C127.364 87.8389 127.364 86.4824 126.234 86.4824Z" fill="#E0CAEF"/>
<path d="M133.018 96.209C131.888 96.209 131.888 97.5654 133.018 97.5654C134.149 97.7915 134.149 96.209 133.018 96.209Z" fill="#E0CAEF"/>
<path d="M150.883 123.127C150.205 123.127 150.205 124.257 150.883 124.257C151.561 124.257 151.561 123.127 150.883 123.127Z" fill="#E0CAEF"/>
<path d="M153.822 112.043C152.917 112.043 152.917 113.399 153.822 113.399C154.726 113.173 154.726 112.043 153.822 112.043Z" fill="#E0CAEF"/>
<path d="M164.901 116.341C163.771 116.341 163.771 117.923 164.901 117.923C166.031 117.697 166.031 116.341 164.901 116.341Z" fill="#E0CAEF"/>
<path d="M121.261 126.293C121.261 126.293 121.261 126.518 121.261 126.293C121.485 126.518 121.485 126.293 121.261 126.293Z" fill="#E0CAEF"/>
<path d="M133.47 123.579C132.792 123.579 132.792 124.483 133.47 124.483C134.148 124.483 134.374 123.579 133.47 123.579Z" fill="#E0CAEF"/>
<path d="M134.15 133.08C133.02 133.08 133.02 134.662 134.15 134.662C135.28 134.662 135.28 133.08 134.15 133.08Z" fill="#E0CAEF"/>
<path d="M114.477 132.175C113.573 132.175 113.573 133.531 114.477 133.531C115.381 133.531 115.381 132.175 114.477 132.175Z" fill="#E0CAEF"/>
<path d="M110.182 139.639C109.278 139.639 109.278 140.77 110.182 140.77C111.086 140.996 111.086 139.639 110.182 139.639Z" fill="#E0CAEF"/>
<path d="M108.599 130.365C108.373 129.913 107.695 129.913 107.469 130.139V130.365C106.79 131.495 109.503 131.495 108.599 130.365Z" fill="#E0CAEF"/>
<path d="M229.795 99.6019C227.986 95.5303 228.438 90.7802 226.177 86.9348C226.177 86.7086 225.951 86.7086 225.725 86.7086C225.951 85.8038 225.499 84.8989 224.142 84.8989C223.012 84.8989 222.559 85.5775 222.559 86.2561C222.333 86.0299 222.107 86.0299 221.881 86.0299C215.098 88.7443 207.862 91.6849 201.984 96.2089C201.757 95.7565 201.305 95.3041 200.627 95.3041C200.401 95.3041 200.175 95.3041 199.949 95.5303C197.688 94.6255 195.2 94.1731 192.713 93.9469C190.678 93.7207 188.643 93.2684 186.834 93.7208C186.608 93.4946 186.382 93.4946 185.93 93.4946H185.704C185.252 93.4946 184.799 94.1732 184.799 94.6256V94.8518C184.799 95.078 185.026 95.0779 185.026 95.0779C184.347 96.2089 183.669 97.5661 182.991 98.6971C182.538 99.3757 182.086 99.8282 181.408 100.507C181.182 100.507 181.182 100.507 180.956 100.507C179.147 100.507 179.147 102.769 180.956 102.769C181.182 102.769 181.408 102.769 181.408 102.769C185.704 105.483 190 108.198 194.296 110.233C193.391 110.686 193.391 112.269 194.974 112.269C195.653 112.269 195.879 112.043 196.105 111.591C206.053 110.233 218.489 107.293 226.629 101.185C226.855 101.412 227.082 101.412 227.534 101.412C228.664 101.412 228.89 100.507 228.664 99.8281C229.569 100.281 229.795 100.054 229.795 99.6019ZM227.986 99.6019C227.308 99.6019 226.855 100.054 226.855 100.507C221.429 102.543 216.228 105.709 210.576 107.519C206.054 109.102 201.305 110.007 196.557 110.912C196.331 110.686 196.331 110.46 196.105 110.46C196.105 110.233 196.105 110.233 195.879 110.007C191.583 107.293 187.06 105.031 182.538 102.543C182.764 102.316 182.764 102.09 182.764 101.864C184.573 100.281 185.704 97.7923 186.608 95.5303C187.287 95.5303 187.513 95.078 187.513 94.6256C189.548 95.078 191.583 94.8517 193.618 95.3041C195.653 95.5303 197.687 95.9827 199.496 96.6613C199.27 97.3399 199.723 98.0186 200.853 98.0186C201.305 98.0186 201.531 97.7923 201.757 97.7923H201.984C208.993 94.3994 215.324 90.3277 222.559 87.1609C222.785 87.1609 222.786 86.9348 222.786 86.9348C223.012 87.3872 223.464 87.8396 224.368 87.8396C224.82 87.8396 225.047 87.6134 225.273 87.6134C225.951 91.685 226.629 95.9827 228.438 99.8281C228.212 99.6019 228.212 99.6019 227.986 99.6019Z" fill="#E0CAEF"/>
<path d="M210.347 81.732C209.895 81.0538 208.765 81.5059 208.991 82.1841C209.217 83.3145 211.025 82.6363 210.347 81.732Z" fill="#E0CAEF"/>
<path d="M199.269 73.5889C198.139 73.5889 198.139 75.1714 199.269 75.1714C200.399 74.9453 200.399 73.5889 199.269 73.5889Z" fill="#E0CAEF"/>
<path d="M216.001 76.5295C214.87 76.5295 214.87 77.886 216.001 77.886C216.905 78.1121 216.905 76.5295 216.001 76.5295Z" fill="#E0CAEF"/>
<path d="M189.771 85.3513C188.866 85.3513 188.866 86.4817 189.771 86.4817C190.675 86.4817 190.675 85.3513 189.771 85.3513Z" fill="#E0CAEF"/>
<path d="M188.865 121.996C188.641 121.996 188.641 122.22 188.865 121.996C188.865 122.22 188.865 121.996 188.865 121.996Z" fill="#E0CAEF"/>
<path d="M181.631 112.495C180.727 112.721 180.953 114.078 181.857 114.078C182.987 114.078 182.761 112.269 181.631 112.495Z" fill="#E0CAEF"/>
<path d="M175.752 131.496C174.622 131.496 174.622 133.079 175.752 133.079C176.882 133.079 176.882 131.496 175.752 131.496Z" fill="#E0CAEF"/>
<path d="M199.495 124.031C199.043 123.579 198.59 123.579 198.138 124.031C197.46 124.483 198.138 125.388 198.817 125.388C199.495 125.388 200.173 124.483 199.495 124.031Z" fill="#E0CAEF"/>
<path d="M179.598 121.543C178.467 121.543 178.467 123.126 179.598 123.126C180.954 123.126 180.954 121.543 179.598 121.543Z" fill="#E0CAEF"/>
<path d="M154.048 133.984L153.822 134.21C153.596 134.662 154.048 135.114 154.5 135.114C154.726 135.114 154.726 135.114 154.952 135.114C156.761 135.114 154.952 132.628 154.048 133.984Z" fill="#E0CAEF"/>
<path d="M234.541 92.3635C233.637 92.3635 233.637 93.72 234.541 93.72C235.672 93.72 235.672 92.3635 234.541 92.3635Z" fill="#E0CAEF"/>
<path d="M213.742 101.411C212.612 101.411 212.612 102.994 213.742 102.994C215.099 102.994 215.099 101.411 213.742 101.411Z" fill="#E0CAEF"/>
<path d="M227.307 81.2797C226.855 81.0536 226.629 81.0536 226.177 81.2797C226.177 81.2797 226.177 81.2797 225.95 81.2797C225.272 81.7318 225.95 82.636 226.629 82.636C227.307 82.636 227.985 81.7318 227.307 81.2797Z" fill="#E0CAEF"/>
<path d="M238.159 81.9583C237.029 81.9583 237.029 83.5408 238.159 83.5408C239.289 83.5408 239.289 81.9583 238.159 81.9583Z" fill="#E0CAEF"/>
<path d="M151.108 82.1846C149.978 82.1846 149.978 83.767 151.108 83.767C152.239 83.767 152.239 82.1846 151.108 82.1846Z" fill="#E0CAEF"/>
<path d="M158.118 90.554C156.988 90.554 156.988 92.1365 158.118 92.1365C159.249 92.1365 159.249 90.554 158.118 90.554Z" fill="#E0CAEF"/>
<path d="M143.874 90.78C142.743 90.78 142.743 92.3626 143.874 92.3626C145.004 92.1365 145.004 90.78 143.874 90.78Z" fill="#E0CAEF"/>
<path d="M142.289 81.7322C141.158 81.7322 141.158 83.3147 142.289 83.3147C143.419 83.3147 143.419 81.7322 142.289 81.7322Z" fill="#E0CAEF"/>
<path d="M142.514 71.3269C141.61 71.3269 141.61 72.4573 142.514 72.4573C143.419 72.6833 143.419 71.3269 142.514 71.3269Z" fill="#E0CAEF"/>
<path d="M166.708 78.3391C165.804 78.3391 165.804 79.6956 166.708 79.6956C167.838 79.6956 167.838 78.3391 166.708 78.3391Z" fill="#E0CAEF"/>
<path d="M178.467 87.6133C177.563 87.6133 177.563 88.7436 178.467 88.7436C179.371 88.7436 179.371 87.6133 178.467 87.6133Z" fill="#E0CAEF"/>
<path d="M182.987 72.0056C181.857 72.0056 181.857 73.5881 182.987 73.5881C184.343 73.5881 184.343 72.0056 182.987 72.0056Z" fill="#E0CAEF"/>
<path d="M170.78 65.6719C169.876 65.6719 169.876 67.0283 170.78 67.0283C171.685 66.8022 171.685 65.6719 170.78 65.6719Z" fill="#E0CAEF"/>
<path d="M167.612 28.5752C166.708 28.5752 166.708 29.9316 167.612 29.9316C168.742 29.9316 168.742 28.5752 167.612 28.5752Z" fill="#E0CAEF"/>
<path d="M172.589 44.4092C171.233 44.4092 171.233 45.9917 172.589 45.9917C173.945 46.2178 173.945 44.4092 172.589 44.4092Z" fill="#E0CAEF"/>
<path d="M162.414 7.53857C161.51 7.53857 161.51 8.89502 162.414 8.89502C163.545 8.66895 163.545 7.53857 162.414 7.53857Z" fill="#E0CAEF"/>
<path d="M150.429 8.66943C149.751 8.66943 149.751 9.79979 150.429 9.79979C151.107 9.57372 151.107 8.66943 150.429 8.66943Z" fill="#E0CAEF"/>
<path d="M148.168 0.97876C147.263 0.97876 147.263 2.10912 148.168 2.10912C149.072 2.33519 149.072 0.97876 148.168 0.97876Z" fill="#E0CAEF"/>
<path d="M130.76 6.63379C130.082 6.63379 129.856 6.85983 129.856 7.31198V7.53806C129.629 8.44235 130.986 8.44232 131.438 8.21625C132.116 7.31196 131.664 6.63379 130.76 6.63379Z" fill="#E0CAEF"/>
</svg>
