<svg width="213" height="129" viewBox="0 0 213 129" fill="none" xmlns="http://www.w3.org/2000/svg">
<path d="M19.1352 68.0822C10.317 66.9512 -8.22381 57.4508 4.4382 37.319C4.4382 37.319 -6.6411 23.5208 7.15145 16.961C20.944 10.175 28.6316 24.6519 28.6316 24.6519C28.6316 24.6519 29.7622 19.9016 36.3194 20.8064C36.3194 20.8064 36.3194 1.12707 57.7996 0.900866C79.2798 0.674666 79.5058 18.092 79.5058 18.092C79.5058 18.092 93.9768 5.19866 113.648 12.2109C133.319 19.2231 128.119 34.3784 128.119 34.3784C128.119 34.3784 129.476 23.9732 138.746 23.747C148.242 23.5208 150.051 30.0806 150.051 30.0806C150.051 30.0806 155.704 14.699 171.532 17.1872C187.359 19.6754 186.455 35.9618 186.455 35.9618C186.455 35.9618 196.856 24.8781 207.03 37.0928C217.205 49.0814 209.518 71.4752 186.907 63.5582C186.907 63.5582 192.56 92.0594 160.678 82.559C160.678 82.559 165.201 99.2978 149.373 110.834C133.546 122.37 127.667 133.906 103.699 124.18C80.1842 114.679 19.1352 68.0822 19.1352 68.0822Z" fill="#474444"/>
<path d="M187.135 36.1882C187.135 36.1882 188.039 19.9018 172.212 17.4136C169.272 16.9612 166.785 17.1874 164.524 17.6398C168.82 20.3542 172.212 24.8782 172.89 31.8904C174.473 49.3078 160.454 55.4151 160.454 55.4151C160.454 55.4151 164.976 73.5112 152.54 77.5828C135.356 83.0116 115.911 116.263 106.188 125.085C128.799 133.68 134.904 122.37 150.505 111.06C166.333 99.5241 161.811 82.7853 161.811 82.7853C193.692 92.2857 188.039 63.7846 188.039 63.7846C210.65 71.4754 218.338 49.3077 208.163 37.3191C197.762 25.1044 187.135 36.1882 187.135 36.1882Z" fill="#282325"/>
<path d="M110.482 67.4037C101.212 65.8203 96.4638 53.6055 96.4638 53.6055C96.4638 53.6055 92.62 57.4509 72.7225 61.5225C52.8251 65.5941 50.3379 47.7243 50.3379 47.7243L36.3193 53.6055C36.3193 53.6055 15.0651 58.5819 10.543 53.6055C6.02084 48.6291 16.1957 42.5217 16.1957 42.5217C16.1957 42.5217 8.73418 30.7593 15.9696 27.3663C20.944 25.1043 24.7878 28.9497 26.8228 31.4379C26.8228 28.9497 27.7272 26.4615 29.0838 24.1995C27.9533 22.3899 20.4918 10.6275 7.82974 16.7349C-5.96281 23.5209 5.11642 37.0929 5.11642 37.0929C-7.54559 57.2247 10.9952 66.9512 19.8134 67.856C19.8134 67.856 40.6153 83.69 62.5477 98.8454C92.3939 98.6192 120.431 92.738 120.883 85.952C121.788 74.4158 119.753 68.9871 110.482 67.4037Z" fill="#75626A"/>
<path d="M78.1505 44.1051C77.02 46.1409 73.6283 45.6885 71.8195 45.4623C69.3323 45.0099 68.2018 44.5575 66.619 42.5217C64.5841 39.8073 65.4885 39.3549 65.9407 36.4143C66.1668 35.2833 66.1668 34.3785 66.1668 33.0213C66.1668 31.8903 64.8102 31.6641 63.9057 31.8903C56.4442 35.0571 48.5305 28.4973 53.2787 21.0327C53.7309 20.3541 52.6004 19.6755 51.9221 20.1279C48.5305 23.5209 48.5305 28.7235 51.9221 32.3427C54.8615 35.2833 59.1575 35.7357 63.0013 34.8309C62.5491 37.7715 61.1924 40.7121 62.5491 43.4265C63.6796 45.4623 65.7146 46.5933 67.7496 47.2719C71.5934 48.6291 78.3766 49.5339 80.6377 45.2361C81.9943 43.2003 78.8289 42.2955 78.1505 44.1051Z" fill="#5E4B53"/>
<path d="M124.954 53.3792C124.276 48.4028 121.337 44.105 115.91 43.2002C115.232 43.2002 114.553 43.8788 115.458 44.105C119.528 45.9146 123.372 49.76 122.467 54.5102C122.241 55.8674 123.598 56.3198 124.502 55.8674C127.894 54.5102 131.964 54.9626 134.451 58.1294C136.034 60.3914 136.26 62.8796 136.26 65.3678C136.26 66.725 138.521 66.9512 138.747 65.594C141.686 57.2246 132.416 51.7958 124.954 53.3792Z" fill="#5E4B53"/>
<path d="M151.408 35.9619C149.147 32.7951 143.947 30.5331 140.103 30.3069C136.711 30.0807 132.642 31.6641 133.094 35.7357C133.094 36.6405 134.677 36.8667 134.903 35.9619C135.807 31.4379 140.781 32.5689 143.721 33.9261C145.756 34.8309 147.565 36.4143 149.6 37.5453C150.504 37.7715 152.087 36.8667 151.408 35.9619Z" fill="#5E4B53"/>
<path d="M167.464 25.5567C166.108 24.8781 164.299 25.5567 163.168 26.2353C159.098 28.2711 155.707 31.2117 152.994 34.6047C152.315 35.5095 153.898 36.1881 154.576 35.5095C156.159 33.6999 157.968 32.1165 159.777 30.7593C160.681 30.3069 165.882 26.4615 166.786 27.5925C167.238 28.0449 167.917 28.0449 168.369 27.3663C168.821 26.9139 168.369 26.0091 167.464 25.5567Z" fill="#5E4B53"/>
<path d="M57.8025 5.42479C52.8281 3.389 46.7232 4.29374 42.4271 7.91294C39.0355 10.8535 35.87 17.8657 39.4877 21.7111C40.1661 22.3897 42.201 22.616 42.201 21.0326C41.9749 18.9968 41.2966 17.1872 41.7488 15.1514C42.201 13.1156 43.3316 11.0798 44.9143 9.72258C48.532 6.55578 53.0542 6.55574 57.5763 6.78194C58.0286 6.78194 58.4808 5.65099 57.8025 5.42479Z" fill="#5E4B53"/>
</svg>
