<svg width="93" height="90" viewBox="0 0 93 90" fill="none" xmlns="http://www.w3.org/2000/svg">
<path d="M57.0765 87.0349C57.0765 87.0349 42.1534 94.4996 32.883 84.0944C23.8387 73.6892 25.8737 65.9984 25.8737 65.9984C25.8737 65.9984 7.78506 71.6534 1.90627 56.2718C-3.97252 41.1164 8.23725 32.5208 8.23725 32.5208C8.23725 32.5208 -1.71147 18.7226 8.23725 13.2938C18.186 7.63882 25.8737 13.2938 25.8737 13.2938C25.8737 13.2938 31.7525 0.400391 47.58 0.400391C63.4075 0.400391 64.538 15.3296 64.538 15.3296C64.538 15.3296 71.7734 5.82922 82.8527 12.1628C93.932 18.4964 92.8015 50.8429 92.8015 50.8429L57.0765 87.0349Z" fill="#403B3C"/>
<path d="M48.7094 69.6175C39.6651 59.2123 37.6301 54.2359 37.6301 54.2359C37.6301 54.2359 19.5416 59.8909 13.6628 44.5093C10.4973 36.5923 12.3062 30.4849 14.7933 26.4133C12.7584 24.3775 10.9495 21.8893 10.0451 19.4011C9.14064 17.3653 8.91452 14.6509 9.81895 12.3889C9.36673 12.6151 8.9145 12.8414 8.46229 13.0676C-1.48644 18.7226 8.46229 32.2945 8.46229 32.2945C8.46229 32.2945 -3.74748 40.8901 2.13131 56.0455C8.0101 71.2009 26.0987 65.7721 26.0987 65.7721C26.0987 65.7721 23.8376 73.4629 33.108 83.8681C42.1523 94.2733 57.3015 86.8087 57.3015 86.8087L68.833 75.2725C66.798 76.4035 57.0754 79.5703 48.7094 69.6175Z" fill="#605A5C"/>
<path d="M52.3286 5.37683C43.0582 1.75763 33.5617 6.5078 31.0745 16.2344C27.0046 16.0082 21.578 17.3654 23.1607 22.1156C23.3868 23.0204 25.1957 23.2466 25.6479 22.1156C27.6829 21.2108 29.9439 20.0798 31.9789 19.175C32.8833 19.4012 33.7878 18.7226 34.0139 17.8178C35.3706 9.22223 43.2843 4.47199 51.4242 6.96019C52.5547 7.18639 53.4591 5.82923 52.3286 5.37683Z" fill="#443D3F"/>
</svg>
