<svg width="135" height="56" viewBox="0 0 135 56" fill="none" xmlns="http://www.w3.org/2000/svg">
<path d="M129.476 34.9652L113.423 34.2866L112.292 30.4412L132.642 31.346L131.285 32.9294L129.476 34.9652Z" fill="#FF946E"/>
<path d="M91.4885 4.2019C77.922 4.2019 67.0689 15.2857 67.0689 28.6315C67.0689 41.9773 78.1481 53.061 91.4885 53.061C105.055 53.061 115.908 41.9773 115.908 28.6315C115.908 15.2857 105.055 4.2019 91.4885 4.2019ZM91.4885 49.668C79.957 49.668 70.4605 40.1677 70.4605 28.6315C70.4605 17.0953 79.957 7.5949 91.4885 7.5949C103.02 7.5949 112.517 17.0953 112.517 28.6315C112.517 40.1677 103.246 49.668 91.4885 49.668Z" fill="#FF946E"/>
<path d="M29.0856 4.42798C15.5191 4.42798 4.66602 15.5118 4.66602 28.8576C4.66602 42.4296 15.7453 53.2872 29.0856 53.2872C42.4259 53.2872 53.5052 42.2034 53.5052 28.8576C53.5052 15.5118 42.652 4.42798 29.0856 4.42798ZM29.0856 49.8942C17.5541 49.8942 8.05763 40.3938 8.05763 28.8576C8.05763 17.3214 17.5541 7.82098 29.0856 7.82098C40.6171 7.82098 50.1135 17.3214 50.1135 28.8576C50.1135 40.62 40.6171 49.8942 29.0856 49.8942Z" fill="#FF946E"/>
<path d="M63.6802 23.8813C59.3841 22.9765 53.5054 23.2027 50.7921 27.2743C49.2093 29.5363 53.0531 31.346 54.6359 29.7626C56.6708 27.7268 59.6103 27.5006 62.3236 27.953C64.5846 28.4054 65.9413 29.9888 67.524 31.346C67.9762 31.7984 68.8806 31.5722 69.3328 31.1198C71.82 28.1792 66.1673 24.3337 63.6802 23.8813Z" fill="#FF946E"/>
<path d="M89.4574 3.29712C75.891 3.29712 65.0378 14.381 65.0378 27.7267C65.0378 41.2987 76.1171 52.1563 89.4574 52.1563C103.024 52.1563 113.877 41.0725 113.877 27.7267C114.103 14.1548 103.024 3.29712 89.4574 3.29712ZM89.4574 48.7633C77.9259 48.7633 68.4294 39.2629 68.4294 27.7267C68.4294 16.1906 77.9259 6.69012 89.4574 6.69012C100.989 6.69012 110.485 16.1906 110.485 27.7267C110.485 39.2629 100.989 48.7633 89.4574 48.7633Z" fill="#FF652F"/>
<path d="M27.0496 3.29712C13.4831 3.29712 2.62994 14.381 2.62994 27.7267C2.62994 41.0725 13.7092 52.1563 27.0496 52.1563C40.3899 52.1563 51.4692 41.0725 51.4692 27.7267C51.4692 14.381 40.616 3.29712 27.0496 3.29712ZM27.0496 48.9895C15.5181 48.9895 6.02155 39.4892 6.02155 27.953C6.02155 16.4168 15.5181 6.91633 27.0496 6.91633C38.5811 6.91633 48.0775 16.4168 48.0775 27.953C48.0775 39.4892 38.5811 48.9895 27.0496 48.9895Z" fill="#FF652F"/>
<path opacity="0.53" d="M27.0494 48.9895C38.6628 48.9895 48.0774 39.5711 48.0774 27.9529C48.0774 16.3347 38.6628 6.91626 27.0494 6.91626C15.436 6.91626 6.02136 16.3347 6.02136 27.9529C6.02136 39.5711 15.436 48.9895 27.0494 48.9895Z" fill="#96D2F0"/>
<path d="M61.6432 22.7502C57.3471 21.8454 51.4684 22.0716 48.7551 26.1432C47.1723 28.4052 51.0161 30.2148 52.5989 28.6315C54.6338 26.5957 57.5732 26.3695 60.2865 26.8219C62.5476 27.2743 63.9043 28.8577 65.487 30.2149C65.9392 30.6673 66.8436 30.4411 67.2959 29.9887C69.5569 27.2743 64.1304 23.4288 61.6432 22.7502Z" fill="#FF652F"/>
<path d="M131.287 32.9292L113.198 32.2507L113.876 28.8577L134.452 29.7625L131.287 32.9292Z" fill="#FF652F"/>
<path d="M114.101 33.1555C112.971 33.1555 111.84 32.2507 111.84 30.8935V30.2149C111.84 29.0839 112.744 27.9529 114.101 27.9529C115.232 27.9529 116.362 28.8577 116.362 30.2149V30.8935C116.362 32.2507 115.458 33.1555 114.101 33.1555Z" fill="#FF652F"/>
<path d="M2.40475 30.8935C1.27421 30.8935 0.143677 29.9887 0.143677 28.6315V27.9529C0.143677 26.8219 1.04811 25.6909 2.40475 25.6909C3.53529 25.6909 4.66582 26.5957 4.66582 27.9529V28.6315C4.66582 29.9887 3.7614 30.8935 2.40475 30.8935Z" fill="#FF652F"/>
<path d="M16.1974 30.4409H5.34424V26.8218H15.9713L16.1974 30.4409Z" fill="#FF946E"/>
<path opacity="0.53" d="M108.984 35.7912C113.428 25.0571 108.333 12.7511 97.6034 8.30478C86.8738 3.8585 74.5727 8.9557 70.1282 19.6897C65.6838 30.4238 70.779 42.7299 81.5086 47.1762C92.2383 51.6225 104.539 46.5252 108.984 35.7912Z" fill="#96D2F0"/>
<path d="M17.1025 16.4166C13.2587 18.4524 10.7715 21.6192 9.86706 25.917C8.96263 29.9886 8.96264 36.5484 12.3543 39.489C13.0326 39.9414 14.3892 39.489 13.937 38.5842C10.7715 31.7982 10.7715 21.6192 17.7808 17.0952C18.233 16.6428 17.5547 16.1904 17.1025 16.4166Z" fill="#EEF2F7"/>
<path d="M78.8281 15.9642C74.9843 18 72.4971 21.3931 71.8188 25.6909C71.1405 29.7625 71.3666 36.3222 74.7582 39.0366C75.4366 39.489 76.7932 39.0367 76.3409 38.1319C72.9493 31.3459 72.4971 21.1669 79.5064 16.6429C79.7325 16.4167 79.2804 15.738 78.8281 15.9642Z" fill="#EEF2F7"/>
<path d="M53.7316 27.7268V34.0604C53.7316 34.0604 48.3051 32.2508 46.4962 34.0604C44.6873 35.87 53.7316 42.656 53.7316 42.656" fill="#B78B86"/>
<path d="M46.2707 34.2865C46.2707 34.2865 46.2707 36.3223 49.4362 38.8105C52.6017 41.5249 54.1845 42.4297 54.1845 42.4297L58.2544 41.7511C58.2544 41.7511 51.2451 33.6079 46.2707 34.2865Z" fill="#A8716D"/>
<path d="M55.9935 28.6316V34.2866L53.7324 33.8342L54.6368 29.7626L55.9935 28.6316Z" fill="#D3A8A5"/>
</svg>
