<svg width="150" height="95" viewBox="0 0 150 95" fill="none" xmlns="http://www.w3.org/2000/svg">
<path d="M4.81494 9.08228C4.81494 9.08228 -7.84709 60.6559 12.5026 73.5492C32.8522 86.4426 55.463 83.5021 56.5935 87.7999C56.5935 87.7999 56.5935 94.1335 65.6378 94.5859C74.6821 94.8121 80.1087 93.4549 81.9176 89.8357C83.7264 85.9903 84.6309 82.8234 92.5447 81.24C100.685 79.6566 115.834 75.8112 115.834 75.8112C115.834 75.8112 131.661 85.7641 144.323 68.5729C156.985 51.3817 140.932 38.4883 127.365 43.2385C114.025 47.9887 111.085 59.5249 111.085 59.5249C111.085 59.5249 105.433 61.1082 107.92 51.834C110.407 42.3336 111.764 13.1539 96.3885 11.3443C81.0132 9.53468 79.4303 5.46308 81.0131 1.16528C81.0131 1.16528 75.8127 12.7015 56.8196 11.5705C37.8266 10.4395 34.2089 1.16528 34.2089 1.16528C34.2089 1.16528 25.3907 10.4395 4.81494 9.08228Z" fill="#FCEDCD"/>
<path d="M4.81494 54.7747C3.00608 45.9529 2.78 10.2133 13.1809 9.08228C10.6938 9.30848 7.98044 9.30848 4.81494 9.08228C4.81494 9.08228 -7.84709 60.6558 12.5026 73.5492C14.9898 75.1326 17.477 76.4899 19.9642 77.6209C12.0504 73.7755 7.07601 65.1799 4.81494 54.7747Z" fill="#D3CCA5"/>
<path opacity="0.55" d="M81.4652 11.3442C81.4652 11.3442 95.4839 19.2612 106.111 18.8088C104.076 14.7372 101.137 11.5704 96.3884 11.118C81.013 9.30836 79.4302 5.23676 81.0129 0.938965C81.0129 0.938965 75.8125 12.4752 56.8195 11.3442C37.8265 10.2132 34.2087 0.938965 34.2087 0.938965C34.2087 0.938965 27.4256 7.95116 12.2764 8.85596C14.5374 10.4394 18.6073 12.0228 24.0339 11.118C33.5304 9.76076 36.0176 8.17739 36.0176 8.17739C36.0176 8.17739 40.3137 18.3564 57.2717 18.1302C74.682 18.3564 81.4652 11.3442 81.4652 11.3442Z" fill="#B7AF86"/>
<path opacity="0.55" d="M107.469 56.3579H94.8066V53.6436H107.469V56.3579Z" fill="#B78B86"/>
<path opacity="0.55" d="M144.547 68.3466C151.783 58.62 149.521 50.2506 144.095 45.7266C145.678 47.9886 147.26 53.6435 146.356 57.4889C144.321 66.3107 138.216 76.0374 125.554 78.5256C131.207 78.7518 138.216 76.9422 144.547 68.3466Z" fill="#B78B86"/>
<path opacity="0.55" d="M104.077 76.9421C95.7114 79.2041 85.3104 80.1089 83.7277 83.0495C82.8233 84.6329 82.8233 89.6093 77.1707 93.4547C79.6578 92.7761 81.2405 91.4189 82.1449 89.6093C83.9538 85.7639 84.8582 82.5972 92.772 81.0138C100.912 79.4304 116.061 75.5849 116.061 75.5849C116.061 75.5849 113.8 74.2277 104.077 76.9421Z" fill="#B78B86"/>
<path opacity="0.55" d="M61.3409 83.9543C61.567 83.7281 61.7931 83.5019 62.0192 83.2757C51.1661 83.7281 35.5646 81.6923 28.3292 80.5613C40.9912 84.6329 51.8443 84.6329 55.4621 86.4425C56.3665 85.9901 57.4971 85.7639 58.4015 85.5377C59.0798 84.8591 60.4364 84.6329 61.3409 83.9543Z" fill="#B78B86"/>
<path d="M123.072 63.3703C123.298 64.0489 124.428 64.0489 124.881 63.5965C125.785 62.6917 126.463 61.7869 127.82 62.2393C128.725 62.0131 129.177 62.4655 129.177 63.3703C129.629 64.0489 129.629 64.9537 129.403 65.6323C128.725 68.1205 126.464 67.4419 124.655 67.6681C124.202 67.6681 123.75 67.8943 123.976 68.3467C124.655 70.1563 126.916 69.9301 128.272 69.4777C130.081 68.7991 131.438 67.2157 131.664 65.1799C131.89 63.3703 130.986 60.8821 128.951 60.2035C127.82 59.7511 126.463 60.2035 125.333 60.8821C126.011 58.3939 128.498 56.8105 131.438 56.3581C135.508 55.9057 137.543 59.0725 136.638 62.9179C136.412 64.2751 138.447 64.5013 138.899 63.3703C144.552 47.9887 117.645 52.9651 123.072 63.3703Z" fill="#935654"/>
<path opacity="0.24" d="M94.8044 66.3109C94.8044 73.5493 88.9255 79.6567 81.464 79.6567C74.0024 79.6567 68.1237 73.7755 68.1237 66.3109C68.1237 59.0725 74.0024 52.9651 81.464 52.9651C88.9255 52.9651 94.8044 59.0725 94.8044 66.3109Z" fill="#EFA5CF"/>
<path opacity="0.24" d="M19.2849 65.4061C19.2849 58.1677 13.4061 52.0603 5.94459 52.0603C4.36183 52.0603 3.0052 52.2865 1.64856 52.7389C3.0052 61.5607 6.17068 69.2515 12.5017 73.3231C13.4061 73.7755 14.3106 74.4541 15.215 74.9065C17.7022 72.6445 19.2849 69.2515 19.2849 65.4061Z" fill="#EFA5CF"/>
<path d="M46.1918 61.3345C45.2873 62.9179 44.1568 64.275 42.8002 65.406C40.7652 66.7632 39.6346 65.6322 38.0519 64.275C37.3736 63.5964 35.7908 64.5013 36.4691 65.1799C37.8258 66.9895 39.6346 68.799 42.1218 67.8942C43.0262 67.668 43.7045 66.7633 44.3829 66.0847C45.5134 64.7275 46.644 63.3703 47.3223 61.7869C48.0006 61.1083 46.644 60.6559 46.1918 61.3345Z" fill="#935654"/>
<path d="M40.3116 70.3823C40.3116 70.3823 41.8944 69.9299 43.251 69.2513C44.6077 68.5727 42.7988 71.7395 42.3466 71.7395C41.6683 71.9657 40.3116 70.3823 40.3116 70.3823Z" fill="#A8716D"/>
<path d="M74.9067 29.8925C71.7412 28.9877 66.7668 28.7615 64.5057 31.9283C64.0535 32.6069 64.9579 33.2855 65.6362 33.0593C68.3495 32.6069 71.0628 32.1545 74.0022 33.0593C76.4894 33.9641 77.1677 36.2261 79.2027 37.1309C79.881 37.5833 80.7855 37.1309 81.2377 36.4523C82.5943 33.2855 77.3939 30.5711 74.9067 29.8925Z" fill="#241324"/>
<path d="M18.8326 32.6069C15.2149 29.4401 9.78826 31.0235 7.30108 34.6427C6.62276 35.5475 8.20554 36.2261 8.88386 35.7737C10.9188 33.5117 13.6321 33.0593 16.3454 34.1903C17.2498 34.6427 18.8325 35.3213 19.2847 33.9641C19.2847 33.2855 19.0587 33.0593 18.8326 32.6069Z" fill="#241324"/>
<path d="M14.7625 52.2863C17.26 52.2863 19.2847 50.2608 19.2847 47.7623C19.2847 45.2637 17.26 43.2383 14.7625 43.2383C12.265 43.2383 10.2404 45.2637 10.2404 47.7623C10.2404 50.2608 12.265 52.2863 14.7625 52.2863Z" fill="#241324"/>
<path d="M13.1795 45.9528C13.1795 46.6314 12.7273 47.0838 12.049 47.0838C11.3707 47.0838 10.9185 46.6314 10.9185 45.9528C10.9185 45.2742 11.3707 44.8218 12.049 44.8218C12.5012 44.8218 13.1795 45.2742 13.1795 45.9528Z" fill="#FFFAFE"/>
<path d="M73.5499 54.7746C76.0474 54.7746 78.0721 52.7491 78.0721 50.2506C78.0721 47.752 76.0474 45.7266 73.5499 45.7266C71.0524 45.7266 69.0278 47.752 69.0278 50.2506C69.0278 52.7491 71.0524 54.7746 73.5499 54.7746Z" fill="#241324"/>
<path d="M71.2888 48.8935C71.2888 49.5721 70.8366 50.0245 70.1583 50.0245C69.48 50.0245 69.0278 49.5721 69.0278 48.8935C69.0278 48.2149 69.48 47.7625 70.1583 47.7625C70.8366 47.7625 71.2888 48.2149 71.2888 48.8935Z" fill="#FFFAFE"/>
</svg>
