<svg width="248" height="109" viewBox="0 0 248 109" fill="none" xmlns="http://www.w3.org/2000/svg">
<path d="M73.9964 58.6615C81.2318 40.3393 165.57 44.6371 160.143 51.6493C153.134 60.6973 125.549 66.3523 111.756 68.8405C109.948 69.0667 108.591 70.8764 108.817 72.6859L110.626 96.2107C110.852 99.6037 114.922 101.187 117.409 98.9252L128.94 88.7462C129.845 87.8414 131.202 87.3889 132.332 87.3889C142.733 87.3889 191.572 85.5794 227.749 58.2092C268.901 26.9936 237.02 14.3264 201.973 11.3858C170.77 8.89756 151.551 18.398 151.551 18.398H93.8938C93.8938 18.398 54.3251 -10.7818 20.635 5.95697C-13.055 22.4696 -0.845175 62.0545 31.7143 73.3645C49.8029 79.6981 63.3693 87.1627 69.022 90.5557C70.8309 91.6867 71.7354 93.4964 71.9615 95.5322L72.1876 106.164C71.9615 107.747 73.5442 108.878 74.9008 108.199L94.12 98.6989C97.2855 97.1155 97.9638 93.2701 95.9289 90.5557C91.6328 85.5793 85.754 78.3409 84.8495 76.9837C83.719 74.4955 71.7353 64.5427 73.9964 58.6615Z" fill="#14A76C"/>
<path d="M70.1354 39.3166C76.1478 48.8281 142.282 24.5058 142.282 24.5058L136.855 15.4578C111.16 26.9415 64.123 29.8051 70.1354 39.3166Z" fill="#09513F"/>
<path opacity="0.34" d="M237.698 19.5293C236.115 26.0891 231.367 37.1728 217.8 48.2566C200.842 62.0548 126.679 83.9963 126.679 83.9963L116.73 99.1516C116.956 98.9254 117.183 98.9255 117.409 98.6993L128.94 88.5203C129.845 87.6155 131.201 87.163 132.332 87.163C142.733 87.163 191.572 85.3535 227.749 57.9833C253.299 38.9825 251.038 26.7677 237.698 19.5293Z" fill="#094930"/>
<path d="M72.6404 105.259C72.8665 105.033 72.8665 104.807 73.0926 104.354C73.5449 102.771 74.4492 95.3063 74.6753 93.9491C75.3537 88.7465 71.9621 82.1867 53.4213 71.3291C26.9667 55.7213 14.3047 35.3634 20.8618 21.7914C27.4189 7.99318 46.1859 3.46917 46.1859 3.46917L45.2814 0.754739C37.3676 0.528539 29.2278 2.11198 21.5401 5.95738C-12.1499 22.47 0.0599587 62.0549 32.6194 73.3649C50.708 79.6985 64.2745 87.1631 69.9271 90.5561C71.736 91.6871 72.6404 93.4967 72.8665 95.5325L72.6404 105.259Z" fill="#20CC87"/>
<path d="M166.697 34.6849C166.697 34.6849 170.088 9.35055 199.708 11.1602C196.091 22.6963 180.489 57.5312 156.748 40.1138L166.697 34.6849Z" fill="#09513F"/>
<path opacity="0.36" d="M95.9288 96.2111C95.4765 95.5325 90.5022 97.342 84.6234 100.283C78.7446 103.223 74.2224 106.164 74.6746 106.842C75.1268 107.521 80.1012 105.711 85.98 102.771C91.8588 99.8302 96.1549 96.8897 95.9288 96.2111Z" fill="#152B75"/>
<path d="M93.216 90.3299C91.6332 88.2941 89.8244 86.0321 87.5633 84.6749C87.3372 84.4487 86.885 84.6749 87.1111 85.1273C88.0155 86.7107 89.5983 88.0679 90.7288 89.6513C91.8593 91.0085 93.6682 93.0443 92.7637 94.8539C92.5376 95.5325 93.6682 95.7587 93.8943 95.3063C95.0248 93.4967 94.3465 91.9133 93.216 90.3299Z" fill="#09513F"/>
<path d="M83.4931 79.0199C82.8148 78.5675 82.3625 78.1151 81.6842 77.6627C81.4581 77.4365 80.7798 77.6627 81.232 78.1151C81.6842 78.5675 82.3625 79.2462 82.8147 79.6986C83.2669 79.9248 83.9453 79.4723 83.4931 79.0199Z" fill="#09513F"/>
<path d="M78.5178 73.1389C77.1611 71.3293 75.8045 68.8411 73.5434 67.7101C73.3173 67.4839 72.639 67.7101 72.8651 68.1625C73.3173 69.0673 73.9956 69.7459 74.6739 70.6507C75.5784 71.5555 76.4828 72.6865 77.1611 73.5913C77.8394 74.2699 79.1961 73.8175 78.5178 73.1389Z" fill="#09513F"/>
<path d="M70.6037 56.8524C70.8298 55.0428 72.1864 53.6856 72.8647 52.1022C73.0908 51.6498 72.1864 51.4236 71.9603 51.6498C70.3776 52.7808 69.0209 54.8166 68.7948 56.8524C68.5687 59.1144 69.9253 60.924 70.6037 62.9598C70.8298 63.6384 71.9603 63.4122 71.7342 62.7336C71.7342 60.6978 70.3776 58.8882 70.6037 56.8524Z" fill="#09513F"/>
</svg>
