<svg width="34" height="33" viewBox="0 0 34 33" fill="none" xmlns="http://www.w3.org/2000/svg">
<path d="M19.2707 32.1724L33.9676 24.0292C33.9676 24.0292 27.8628 3.21882 17.9141 0.730621C7.96535 -1.75758 -0.174547 5.02843 0.503775 7.74283C0.95599 10.4572 8.86978 7.2904 8.86978 7.2904C8.86978 7.2904 2.08653 10.4572 2.76485 13.624C3.21706 16.7908 10.6786 12.0406 10.6786 12.0406C10.6786 12.0406 4.3476 16.3384 5.02592 18.8266C5.93035 21.3148 11.1309 14.9812 13.3919 16.3384C15.4269 17.4694 19.2707 32.1724 19.2707 32.1724Z" fill="#FCEDCD"/>
<path opacity="0.55" d="M33.968 24.0292C33.968 24.0292 27.8631 3.21881 17.9144 0.730615C16.1056 0.278215 14.0706 0.0519876 12.4879 0.278188C15.2011 2.08779 19.7232 5.25461 23.1149 9.77861C28.0892 16.5646 29.8981 21.3148 29.8981 24.0292C29.8981 25.1602 28.7675 26.7436 27.637 27.8746L33.968 24.0292Z" fill="#FCEDCD"/>
<path d="M21.5298 31.0413C20.1732 28.1007 15.4249 16.3383 13.8422 15.2073C12.0333 13.8501 8.41556 16.3383 6.60671 17.9217C5.92838 18.3741 5.47614 18.6003 5.02393 18.6003C5.92836 20.8623 11.1288 14.7549 13.1638 16.1121C15.4249 17.4693 19.2687 32.1723 19.2687 32.1723L21.5298 31.0413Z" fill="#D9C08A"/>
<path d="M2.53857 13.3979C2.76468 14.9813 5.02576 14.5288 7.06072 13.624L10.6784 11.8145C10.6784 11.8145 10.6784 11.8145 10.4523 11.8145C9.09569 12.2669 4.57354 13.8503 2.53857 13.3979Z" fill="#D9C08A"/>
<path d="M0.504373 6.38574C0.278265 6.83814 0.27832 7.29054 0.27832 7.51674C0.730535 10.2311 8.64425 7.06431 8.64425 7.06431C8.64425 7.06431 1.63491 8.87394 0.504373 6.38574Z" fill="#D9C08A"/>
<path d="M8.64453 7.06421C8.64453 7.06421 7.28826 7.74245 5.93195 8.64674C7.51431 7.96852 8.64453 7.06421 8.64453 7.06421Z" fill="#D3A8A5"/>
</svg>
